<svg viewBox="0 0 400 400" xmlns="http://www.w3.org/2000/svg">
  <!-- Fundo laranja -->
  <rect width="400" height="400" fill="#F5A623"/>
  
  <!-- Corpo do tomate -->
  <circle cx="200" cy="220" r="120" fill="#E74C3C" stroke="#2C3E50" stroke-width="6"/>
  
  <!-- Destacue no tomate -->
  <ellipse cx="170" cy="190" rx="15" ry="25" fill="#FF6B6B" opacity="0.7"/>
  <ellipse cx="160" cy="210" rx="8" ry="12" fill="#FF6B6B" opacity="0.5"/>
  
  <!-- Folhas do tomate -->
  <g transform="translate(200, 100)">
    <!-- Folha central -->
    <path d="M 0,-10 Q -5,-35 0,-50 Q 5,-35 0,-10" fill="#27AE60" stroke="#2C3E50" stroke-width="3"/>
    
    <!-- Folhas laterais -->
    <path d="M -15,-5 Q -35,-20 -45,-10 Q -25,-5 -15,-5" fill="#27AE60" stroke="#2C3E50" stroke-width="3"/>
    <path d="M 15,-5 Q 35,-20 45,-10 Q 25,-5 15,-5" fill="#27AE60" stroke="#2C3E50" stroke-width="3"/>
    
    <!-- Folhas menores -->
    <path d="M -25,0 Q -40,-10 -35,5 Q -25,5 -25,0" fill="#27AE60" stroke="#2C3E50" stroke-width="3"/>
    <path d="M 25,0 Q 40,-10 35,5 Q 25,5 25,0" fill="#27AE60" stroke="#2C3E50" stroke-width="3"/>
    
    <!-- Caule -->
    <rect x="-4" y="-10" width="8" height="20" fill="#27AE60" stroke="#2C3E50" stroke-width="3"/>
  </g>
  
  <!-- Face do relógio -->
  <circle cx="200" cy="220" r="75" fill="#F4E4BC" stroke="#2C3E50" stroke-width="4"/>
  
  <!-- Marcadores das horas -->
  <g stroke="#2C3E50" stroke-width="3" fill="#2C3E50">
    <!-- 12 horas -->
    <rect x="197" y="150" width="6" height="15"/>
    <!-- 1 hora -->
    <rect x="235" y="160" width="4" height="10" transform="rotate(30 237 165)"/>
    <!-- 2 horas -->
    <rect x="260" y="185" width="4" height="10" transform="rotate(60 262 190)"/>
    <!-- 3 horas -->
    <rect x="270" y="217" width="15" height="6"/>
    <!-- 4 horas -->
    <rect x="260" y="250" width="4" height="10" transform="rotate(120 262 255)"/>
    <!-- 5 horas -->
    <rect x="235" y="275" width="4" height="10" transform="rotate(150 237 280)"/>
    <!-- 6 horas -->
    <rect x="197" y="285" width="6" height="15"/>
    <!-- 7 horas -->
    <rect x="160" y="275" width="4" height="10" transform="rotate(210 162 280)"/>
    <!-- 8 horas -->
    <rect x="135" y="250" width="4" height="10" transform="rotate(240 137 255)"/>
    <!-- 9 horas -->
    <rect x="115" y="217" width="15" height="6"/>
    <!-- 10 horas -->
    <rect x="135" y="185" width="4" height="10" transform="rotate(300 137 190)"/>
    <!-- 11 horas -->
    <rect x="160" y="160" width="4" height="10" transform="rotate(330 162 165)"/>
  </g>
  
  <!-- Ponteiros do relógio -->
  <g fill="#2C3E50">
    <!-- Ponteiro das horas (apontando para 10) -->
    <rect x="198" y="190" width="4" height="30" transform="rotate(-60 200 220)"/>
    <!-- Ponteiro dos minutos (apontando para 2) -->
    <rect x="199" y="170" width="2" height="50" transform="rotate(60 200 220)"/>
  </g>
  
  <!-- Centro do relógio -->
  <circle cx="200" cy="220" r="6" fill="#2C3E50"/>
</svg>